<mxfile host="app.diagrams.net" modified="2022-07-19T15:51:32.088Z" agent="5.0 (Windows NT 10.0; Win64; x64) AppleWebKit/537.36 (KHTML, like Gecko) Chrome/103.0.0.0 Safari/537.36" etag="l5hZnArNPHjBlLDR_Ytn" version="20.1.1" type="github">
  <diagram id="ftpVaE4ZrUkqRL97NRIl" name="Page-1">
    <mxGraphModel dx="920" dy="504" grid="1" gridSize="10" guides="1" tooltips="1" connect="1" arrows="1" fold="1" page="1" pageScale="1" pageWidth="827" pageHeight="1169" math="0" shadow="0">
      <root>
        <mxCell id="0" />
        <mxCell id="1" parent="0" />
        <mxCell id="LjXUgrngTykdXYTC6IcD-18" style="edgeStyle=orthogonalEdgeStyle;rounded=0;orthogonalLoop=1;jettySize=auto;html=1;exitX=0.5;exitY=1;exitDx=0;exitDy=0;entryX=0.5;entryY=0;entryDx=0;entryDy=0;" edge="1" parent="1" source="LjXUgrngTykdXYTC6IcD-1" target="LjXUgrngTykdXYTC6IcD-4">
          <mxGeometry relative="1" as="geometry" />
        </mxCell>
        <mxCell id="LjXUgrngTykdXYTC6IcD-1" value="Mulai" style="ellipse;whiteSpace=wrap;html=1;" vertex="1" parent="1">
          <mxGeometry x="360" y="20" width="140" height="50" as="geometry" />
        </mxCell>
        <mxCell id="LjXUgrngTykdXYTC6IcD-2" value="Selesai" style="ellipse;whiteSpace=wrap;html=1;" vertex="1" parent="1">
          <mxGeometry x="360" y="670" width="140" height="50" as="geometry" />
        </mxCell>
        <mxCell id="LjXUgrngTykdXYTC6IcD-19" style="edgeStyle=orthogonalEdgeStyle;rounded=0;orthogonalLoop=1;jettySize=auto;html=1;exitX=0.5;exitY=1;exitDx=0;exitDy=0;entryX=0.5;entryY=0;entryDx=0;entryDy=0;" edge="1" parent="1" source="LjXUgrngTykdXYTC6IcD-4" target="LjXUgrngTykdXYTC6IcD-5">
          <mxGeometry relative="1" as="geometry" />
        </mxCell>
        <mxCell id="LjXUgrngTykdXYTC6IcD-4" value="Install &amp;amp; Import Library" style="shape=parallelogram;perimeter=parallelogramPerimeter;whiteSpace=wrap;html=1;fixedSize=1;" vertex="1" parent="1">
          <mxGeometry x="330" y="90" width="200" height="40" as="geometry" />
        </mxCell>
        <mxCell id="LjXUgrngTykdXYTC6IcD-21" style="edgeStyle=orthogonalEdgeStyle;rounded=0;orthogonalLoop=1;jettySize=auto;html=1;entryX=0.5;entryY=0;entryDx=0;entryDy=0;" edge="1" parent="1" source="LjXUgrngTykdXYTC6IcD-5" target="LjXUgrngTykdXYTC6IcD-7">
          <mxGeometry relative="1" as="geometry" />
        </mxCell>
        <mxCell id="LjXUgrngTykdXYTC6IcD-5" value="Data Collecting &amp;amp; Cleaning" style="shape=parallelogram;perimeter=parallelogramPerimeter;whiteSpace=wrap;html=1;fixedSize=1;" vertex="1" parent="1">
          <mxGeometry x="330" y="150" width="200" height="40" as="geometry" />
        </mxCell>
        <mxCell id="LjXUgrngTykdXYTC6IcD-22" style="edgeStyle=orthogonalEdgeStyle;rounded=0;orthogonalLoop=1;jettySize=auto;html=1;exitX=0.5;exitY=1;exitDx=0;exitDy=0;entryX=0.5;entryY=0;entryDx=0;entryDy=0;" edge="1" parent="1" source="LjXUgrngTykdXYTC6IcD-7" target="LjXUgrngTykdXYTC6IcD-8">
          <mxGeometry relative="1" as="geometry" />
        </mxCell>
        <mxCell id="LjXUgrngTykdXYTC6IcD-7" value="Data Preprocessing &amp;amp; Transformation" style="rounded=0;whiteSpace=wrap;html=1;" vertex="1" parent="1">
          <mxGeometry x="335" y="210" width="190" height="40" as="geometry" />
        </mxCell>
        <mxCell id="LjXUgrngTykdXYTC6IcD-24" style="edgeStyle=orthogonalEdgeStyle;rounded=0;orthogonalLoop=1;jettySize=auto;html=1;exitX=0.5;exitY=1;exitDx=0;exitDy=0;entryX=0.5;entryY=0;entryDx=0;entryDy=0;" edge="1" parent="1" source="LjXUgrngTykdXYTC6IcD-8" target="LjXUgrngTykdXYTC6IcD-10">
          <mxGeometry relative="1" as="geometry" />
        </mxCell>
        <mxCell id="LjXUgrngTykdXYTC6IcD-8" value="Train Model" style="rounded=0;whiteSpace=wrap;html=1;" vertex="1" parent="1">
          <mxGeometry x="335" y="270" width="190" height="40" as="geometry" />
        </mxCell>
        <mxCell id="LjXUgrngTykdXYTC6IcD-25" style="edgeStyle=orthogonalEdgeStyle;rounded=0;orthogonalLoop=1;jettySize=auto;html=1;exitX=0.5;exitY=1;exitDx=0;exitDy=0;entryX=0.5;entryY=0;entryDx=0;entryDy=0;" edge="1" parent="1" source="LjXUgrngTykdXYTC6IcD-10" target="LjXUgrngTykdXYTC6IcD-11">
          <mxGeometry relative="1" as="geometry" />
        </mxCell>
        <mxCell id="LjXUgrngTykdXYTC6IcD-10" value="Test Model" style="rounded=0;whiteSpace=wrap;html=1;" vertex="1" parent="1">
          <mxGeometry x="335" y="330" width="190" height="40" as="geometry" />
        </mxCell>
        <mxCell id="LjXUgrngTykdXYTC6IcD-26" style="edgeStyle=orthogonalEdgeStyle;rounded=0;orthogonalLoop=1;jettySize=auto;html=1;exitX=0.5;exitY=1;exitDx=0;exitDy=0;entryX=0.5;entryY=0;entryDx=0;entryDy=0;" edge="1" parent="1" source="LjXUgrngTykdXYTC6IcD-11" target="LjXUgrngTykdXYTC6IcD-15">
          <mxGeometry relative="1" as="geometry" />
        </mxCell>
        <mxCell id="LjXUgrngTykdXYTC6IcD-11" value="Test Model" style="rounded=0;whiteSpace=wrap;html=1;" vertex="1" parent="1">
          <mxGeometry x="335" y="390" width="190" height="40" as="geometry" />
        </mxCell>
        <mxCell id="LjXUgrngTykdXYTC6IcD-27" style="edgeStyle=orthogonalEdgeStyle;rounded=0;orthogonalLoop=1;jettySize=auto;html=1;exitX=0.5;exitY=1;exitDx=0;exitDy=0;entryX=0.5;entryY=0;entryDx=0;entryDy=0;" edge="1" parent="1" source="LjXUgrngTykdXYTC6IcD-12" target="LjXUgrngTykdXYTC6IcD-14">
          <mxGeometry relative="1" as="geometry" />
        </mxCell>
        <mxCell id="LjXUgrngTykdXYTC6IcD-12" value="Convert Model ke JSON" style="rounded=0;whiteSpace=wrap;html=1;" vertex="1" parent="1">
          <mxGeometry x="335" y="545" width="190" height="40" as="geometry" />
        </mxCell>
        <mxCell id="LjXUgrngTykdXYTC6IcD-28" style="edgeStyle=orthogonalEdgeStyle;rounded=0;orthogonalLoop=1;jettySize=auto;html=1;exitX=0.5;exitY=1;exitDx=0;exitDy=0;entryX=0.5;entryY=0;entryDx=0;entryDy=0;" edge="1" parent="1" source="LjXUgrngTykdXYTC6IcD-14" target="LjXUgrngTykdXYTC6IcD-2">
          <mxGeometry relative="1" as="geometry" />
        </mxCell>
        <mxCell id="LjXUgrngTykdXYTC6IcD-14" value="Export Final Model" style="shape=parallelogram;perimeter=parallelogramPerimeter;whiteSpace=wrap;html=1;fixedSize=1;" vertex="1" parent="1">
          <mxGeometry x="330" y="610" width="200" height="40" as="geometry" />
        </mxCell>
        <mxCell id="LjXUgrngTykdXYTC6IcD-16" value="Tidak" style="edgeStyle=orthogonalEdgeStyle;rounded=0;orthogonalLoop=1;jettySize=auto;html=1;exitX=1;exitY=0.5;exitDx=0;exitDy=0;entryX=1;entryY=0.5;entryDx=0;entryDy=0;" edge="1" parent="1" source="LjXUgrngTykdXYTC6IcD-15" target="LjXUgrngTykdXYTC6IcD-7">
          <mxGeometry relative="1" as="geometry" />
        </mxCell>
        <mxCell id="LjXUgrngTykdXYTC6IcD-17" value="Ya" style="edgeStyle=orthogonalEdgeStyle;rounded=0;orthogonalLoop=1;jettySize=auto;html=1;exitX=0.5;exitY=1;exitDx=0;exitDy=0;entryX=0.5;entryY=0;entryDx=0;entryDy=0;" edge="1" parent="1" source="LjXUgrngTykdXYTC6IcD-15" target="LjXUgrngTykdXYTC6IcD-12">
          <mxGeometry relative="1" as="geometry" />
        </mxCell>
        <mxCell id="LjXUgrngTykdXYTC6IcD-15" value="Model Sudah Akurat?" style="rhombus;whiteSpace=wrap;html=1;" vertex="1" parent="1">
          <mxGeometry x="315" y="450" width="230" height="60" as="geometry" />
        </mxCell>
      </root>
    </mxGraphModel>
  </diagram>
</mxfile>
